<svg width="10" height="10" viewBox="0 0 10 10" fill="none" xmlns="http://www.w3.org/2000/svg">
<path d="M5 9.375C2.58375 9.375 0.625 7.41625 0.625 5C0.625 2.58375 2.58375 0.625 5 0.625C7.41625 0.625 9.375 2.58375 9.375 5C9.375 7.41625 7.41625 9.375 5 9.375ZM5 10C7.76142 10 10 7.76142 10 5C10 2.23858 7.76142 0 5 0C2.23858 0 0 2.23858 0 5C0 7.76142 2.23858 10 5 10Z" fill="white"/>
<path d="M5 2.5C5.17259 2.5 5.3125 2.63991 5.3125 2.8125V4.6875H7.1875C7.36009 4.6875 7.5 4.82741 7.5 5C7.5 5.17259 7.36009 5.3125 7.1875 5.3125H5.3125V7.1875C5.3125 7.36009 5.17259 7.5 5 7.5C4.82741 7.5 4.6875 7.36009 4.6875 7.1875V5.3125H2.8125C2.63991 5.3125 2.5 5.17259 2.5 5C2.5 4.82741 2.63991 4.6875 2.8125 4.6875H4.6875V2.8125C4.6875 2.63991 4.82741 2.5 5 2.5Z" fill="white"/>
</svg>
